<svg width="71" height="18" viewBox="0 0 71 18" fill="none" xmlns="http://www.w3.org/2000/svg">
<path d="M1.80566 4.65215C1.12892 4.65215 0.576586 4.10976 0.561658 3.42805C0.551706 2.74137 1.09407 2.17412 1.78075 2.16417L68.7776 0.959961C69.4544 0.964937 70.0315 1.4924 70.0415 2.18406C70.0514 2.87074 69.5091 3.43799 68.8174 3.44794L1.82054 4.65215H1.7957H1.80566Z" fill="#4D4D9E"/>
<path d="M2.03906 17.6994C1.36232 17.6994 0.809985 17.157 0.795057 16.4753C0.785105 15.7886 1.32746 15.2214 2.01415 15.2114L27.1081 14.7586C27.7899 14.7337 28.3621 15.296 28.372 15.9827C28.382 16.6694 27.8396 17.2366 27.1529 17.2466L2.05892 17.6994H2.03408H2.03906Z" fill="#4D4D9E"/>
</svg>
