<svg width="211" height="435" viewBox="0 0 211 435" fill="none" xmlns="http://www.w3.org/2000/svg">
<path d="M16.8301 183.544L185.542 167.299L208.811 408.949C209.265 413.664 205.805 417.861 201.089 418.315L49.4652 432.915C44.7499 433.369 40.5525 429.909 40.0985 425.194L16.8301 183.544Z" fill="white"/>
<path d="M48.6224 434.194C46.3483 434.194 44.1639 433.413 42.3875 431.95C40.3622 430.278 39.1083 427.924 38.8545 425.307L15.5867 183.659C15.522 182.977 16.0196 182.365 16.7063 182.301L185.418 166.054C185.746 166.024 186.074 166.124 186.328 166.333C186.582 166.542 186.741 166.845 186.776 167.174L210.044 408.821C210.298 411.434 209.516 413.986 207.844 416.012C206.172 418.037 203.814 419.291 201.201 419.545L49.5778 434.144C49.2543 434.174 48.9359 434.189 48.6174 434.189L48.6224 434.194ZM18.1842 184.659L41.3325 425.068C41.5216 427.018 42.4571 428.78 43.9698 430.029C45.4825 431.278 47.3883 431.86 49.3389 431.671L200.963 417.072C202.913 416.882 204.675 415.947 205.924 414.434C207.173 412.922 207.755 411.016 207.566 409.065L184.417 168.657L18.1842 184.664V184.659Z" fill="#40A192"/>
<path d="M61.6095 313.452C66.0203 313.452 69.596 309.877 69.596 305.466C69.596 301.055 66.0203 297.479 61.6095 297.479C57.1987 297.479 53.623 301.055 53.623 305.466C53.623 309.877 57.1987 313.452 61.6095 313.452Z" fill="#40A192"/>
<path d="M92.734 297.176C92.102 297.176 91.5596 296.693 91.4949 296.051C91.4302 295.369 91.9278 294.757 92.6145 294.693L159.313 288.269C160 288.204 160.607 288.707 160.671 289.388C160.736 290.07 160.238 290.682 159.552 290.747L92.8534 297.171C92.8136 297.171 92.7738 297.176 92.734 297.176Z" fill="#4D4D9E"/>
<path d="M93.983 310.168C93.351 310.168 92.8086 309.685 92.7439 309.043C92.6792 308.362 93.1768 307.75 93.8635 307.685L141.141 303.132C141.827 303.072 142.434 303.57 142.499 304.251C142.564 304.933 142.066 305.545 141.379 305.61L94.1024 310.163C94.0626 310.163 94.0228 310.168 93.983 310.168Z" fill="#4D4D9E"/>
<path d="M96.8355 339.77C96.2035 339.77 95.6612 339.287 95.5965 338.646C95.5318 337.964 96.0294 337.352 96.7161 337.287L163.414 330.863C164.101 330.798 164.708 331.301 164.773 331.983C164.837 332.664 164.34 333.277 163.653 333.341L96.9549 339.765C96.9151 339.765 96.8753 339.77 96.8355 339.77Z" fill="#4D4D9E"/>
<path d="M98.0845 352.762C97.4526 352.762 96.9102 352.28 96.8455 351.638C96.7808 350.956 97.2784 350.344 97.9651 350.279L129.249 347.269C129.936 347.204 130.543 347.707 130.608 348.389C130.672 349.07 130.175 349.682 129.488 349.747L98.204 352.757C98.1642 352.757 98.1244 352.762 98.0845 352.762Z" fill="#4D4D9E"/>
<path d="M65.7101 355.703C70.1209 355.703 73.6966 352.128 73.6966 347.717C73.6966 343.306 70.1209 339.731 65.7101 339.731C61.2993 339.731 57.7236 343.306 57.7236 347.717C57.7236 352.128 61.2993 355.703 65.7101 355.703Z" fill="#FFBB61"/>
<path d="M100.935 382.369C100.303 382.369 99.7608 381.886 99.6961 381.245C99.6314 380.563 100.129 379.951 100.816 379.886L167.514 373.462C168.201 373.397 168.808 373.9 168.872 374.582C168.937 375.263 168.439 375.875 167.753 375.94L101.055 382.364C101.015 382.364 100.975 382.369 100.935 382.369Z" fill="#4D4D9E"/>
<path d="M102.189 395.356C101.557 395.356 101.015 394.874 100.95 394.232C100.885 393.55 101.383 392.938 102.07 392.873L154.746 387.803C155.432 387.738 156.039 388.241 156.104 388.922C156.169 389.604 155.671 390.216 154.984 390.281L102.308 395.351C102.269 395.351 102.229 395.356 102.189 395.356Z" fill="#4D4D9E"/>
<path d="M69.8156 398.641C74.2264 398.641 77.8021 395.065 77.8021 390.654C77.8021 386.244 74.2264 382.668 69.8156 382.668C65.4048 382.668 61.8291 386.244 61.8291 390.654C61.8291 395.065 65.4048 398.641 69.8156 398.641Z" fill="#40A192"/>
<path d="M190.568 156.47C190.568 174.19 185.711 190.774 177.252 204.966C170.211 216.789 160.667 226.95 149.357 234.722C134.916 244.644 117.58 250.67 98.88 251.277C98.4073 251.297 97.9395 251.312 97.4668 251.317C97.3772 251.322 97.2827 251.322 97.1931 251.322C96.6955 251.327 96.1979 251.337 95.7003 251.337C95.2376 251.337 94.7798 251.332 94.312 251.322C93.9438 251.322 93.5806 251.317 93.2123 251.302C92.9038 251.297 92.6053 251.287 92.3018 251.267C91.5603 251.247 90.8288 251.212 90.0974 251.168C89.2116 251.113 88.3359 251.058 87.4651 250.979C87.1167 250.954 86.7784 250.919 86.44 250.889C86.2957 250.874 86.1464 250.854 86.0021 250.844C85.3353 250.78 84.6685 250.7 84.0018 250.62C83.4793 250.556 82.9618 250.491 82.4393 250.411C82.1408 250.372 81.8372 250.327 81.5387 250.282C80.837 250.177 80.1404 250.068 79.4388 249.944C78.9959 249.874 78.5531 249.794 78.1152 249.71C77.6773 249.63 77.2394 249.546 76.8065 249.456C76.3686 249.371 75.9357 249.277 75.4978 249.182C74.7066 249.013 73.9204 248.829 73.1342 248.64C72.8854 248.58 72.6316 248.515 72.3728 248.451C71.4324 248.217 70.487 247.958 69.5564 247.689C69.2479 247.605 68.9394 247.51 68.6359 247.421C68.2577 247.311 67.8696 247.192 67.4914 247.072C66.75 246.844 66.0135 246.6 65.2771 246.351C65.1079 246.296 64.9437 246.241 64.7795 246.182C64.5357 246.102 64.3018 246.018 64.058 245.933C63.645 245.789 63.2319 245.639 62.8289 245.49C62.4159 245.341 62.0128 245.182 61.5998 245.027C61.1918 244.868 60.7887 244.714 60.3807 244.55C57.0965 243.236 53.902 241.733 50.8119 240.071C50.5033 239.907 50.1948 239.738 49.8963 239.569C47.2042 238.081 44.6018 236.474 42.0839 234.747C41.7456 234.513 41.4022 234.284 41.0688 234.04C39.6557 233.045 38.2723 232.01 36.9188 230.945C36.5904 230.682 36.262 230.423 35.9386 230.154C35.6102 229.89 35.2817 229.622 34.9633 229.348C32.4703 227.273 30.0868 225.069 27.8227 222.745C27.559 222.481 27.3052 222.213 27.0515 221.949C25.3944 220.222 23.8121 218.426 22.2944 216.575C8.88408 200.214 0.837891 179.28 0.837891 156.475C0.837891 104.083 43.308 61.6134 95.7003 61.6134C148.093 61.6134 190.568 104.083 190.568 156.475V156.47Z" fill="#4D4D9E"/>
<path d="M23.9854 218.575C23.9854 218.575 51.6469 203.921 58.3297 187.217C63.7287 173.712 59.4443 146.449 55.4337 125.062C55.4337 125.062 46.9546 87.4138 47.1835 74.939C47.4124 62.4643 75.3725 41.9683 102.716 41.0776C118.793 40.5551 131.288 41.615 136.08 43.7646C138.856 45.0086 143.524 47.1533 144.181 50.1239C149.565 74.5957 156.153 108.995 156.949 119.772C157.576 128.271 151.883 142.592 132.338 146.1C128.889 146.717 120.53 147.802 120.53 147.802C120.53 153.818 122.739 183.032 131.586 192.277C142.917 204.12 174.798 208.862 174.798 208.862C174.798 208.862 157.576 237.394 103.94 243.709C57.439 249.182 23.9854 218.575 23.9854 218.575Z" fill="white"/>
<path d="M95.2275 152.057L122.068 164.223L120.526 147.802L95.2275 152.057Z" fill="#1F296F"/>
<path d="M142.634 202.572C142.29 202.572 141.942 202.483 141.629 202.299C138.618 200.527 136.036 198.905 132.453 195.536C121.133 184.888 118.54 154.405 118.54 150.176C118.54 149.076 119.431 148.185 120.53 148.185C121.63 148.185 122.521 149.076 122.521 150.176C122.521 156.396 125.825 183.833 135.185 192.635C138.464 195.721 140.862 197.223 143.654 198.865C144.599 199.423 144.918 200.642 144.361 201.592C143.987 202.224 143.325 202.572 142.644 202.572H142.634Z" fill="#1F296F"/>
<path d="M98.1929 86.697C97.3718 86.697 96.5657 86.3337 96.0234 85.6321C95.0978 84.4379 95.3217 82.7162 96.516 81.7957L106.319 74.2222C107.513 73.2967 109.235 73.5157 110.155 74.7149C111.081 75.9091 110.857 77.6308 109.663 78.5513L99.8599 86.1248C99.3623 86.5079 98.7751 86.697 98.1879 86.697H98.1929Z" fill="#1F296F"/>
<path d="M137.349 79.1238C137.095 79.1238 136.841 79.089 136.587 79.0143L126.561 76.1183C125.108 75.7003 124.272 74.1827 124.69 72.7297C125.108 71.2767 126.625 70.4408 128.078 70.8587L138.105 73.7547C139.558 74.1727 140.394 75.6904 139.976 77.1434C139.628 78.3426 138.538 79.1238 137.349 79.1238Z" fill="#1F296F"/>
<path d="M107.996 97.4353C109.103 97.4353 110.001 95.6152 110.001 93.37C110.001 91.1248 109.103 89.3046 107.996 89.3046C106.888 89.3046 105.99 91.1248 105.99 93.37C105.99 95.6152 106.888 97.4353 107.996 97.4353Z" fill="#1F296F"/>
<path d="M113.882 111.627C112.529 111.627 111.215 111.294 110.026 110.637C108.001 109.512 106.493 107.517 105.99 105.288C105.841 104.616 106.259 103.954 106.931 103.8C107.602 103.651 108.264 104.069 108.418 104.74C108.767 106.283 109.817 107.671 111.23 108.457C112.225 109.01 113.857 109.512 115.982 108.766C116.629 108.537 117.34 108.88 117.569 109.527C117.798 110.174 117.455 110.886 116.808 111.115C115.833 111.458 114.847 111.627 113.882 111.627Z" fill="#1F296F"/>
<path d="M131.95 108.945C131.606 108.945 131.263 108.805 131.019 108.527C130.561 108.014 130.611 107.228 131.124 106.77C132.258 105.765 133.696 103.212 133.472 101.332C133.383 100.59 133.044 100.093 132.408 99.7541C131.402 99.2217 130.636 99.7989 128.974 101.69C127.854 102.964 126.695 104.287 125.108 104.083C122.152 103.715 121.754 99.0127 121.754 94.4647C121.754 93.778 122.311 93.2207 122.998 93.2207C123.685 93.2207 124.242 93.778 124.242 94.4647C124.242 101.391 125.401 101.615 125.416 101.615C125.745 101.595 126.63 100.59 127.108 100.048C128.521 98.4455 130.656 96.0172 133.572 97.5548C134.94 98.2763 135.761 99.4755 135.945 101.033C136.269 103.705 134.552 107.059 132.781 108.631C132.542 108.84 132.248 108.945 131.955 108.945H131.95Z" fill="#1F296F"/>
<path d="M132.333 93.5392C133.441 93.5392 134.339 91.719 134.339 89.4738C134.339 87.2286 133.441 85.4084 132.333 85.4084C131.226 85.4084 130.328 87.2286 130.328 89.4738C130.328 91.719 131.226 93.5392 132.333 93.5392Z" fill="#1F296F"/>
<path d="M53.3688 197.447C52.9359 197.447 52.498 197.308 52.1348 197.02C51.2739 196.338 51.1296 195.084 51.8113 194.223C53.9212 191.561 55.4886 188.954 56.4788 186.475C61.5693 173.747 57.5537 147.19 53.4833 125.46C53.0354 123.47 44.9644 87.3842 45.1933 74.8995C45.3177 68.1173 52.4085 59.3397 63.694 51.9952C75.6513 44.2078 89.8529 39.5055 102.651 39.0875C116.748 38.6297 133.841 39.0477 139.543 41.6053C142.877 43.0981 145.335 46.1235 146.121 49.7012C151.66 74.8796 158.129 108.776 158.93 119.633C159.572 128.386 157.472 143.642 136.155 147.469C116.708 150.957 96.0181 152.107 95.8091 152.116C94.7094 152.166 93.7739 151.335 93.7142 150.236C93.6545 149.136 94.4955 148.2 95.5952 148.141C95.7992 148.131 116.256 146.996 135.453 143.548C152.784 140.438 155.631 128.983 154.964 119.922C154.203 109.577 147.769 75.7056 142.24 50.5521C141.723 48.2035 140.11 46.2181 137.921 45.2328C133.796 43.3867 119.679 42.511 102.785 43.0633C90.6938 43.4564 77.2387 47.9298 65.8685 55.329C55.827 61.8675 49.2736 69.5752 49.1741 74.9741C48.9501 87.0657 57.2899 124.251 57.3745 124.624C57.3795 124.649 57.3845 124.669 57.3894 124.694C61.8231 148.34 65.6198 174.344 60.176 187.953C59.0415 190.785 57.28 193.725 54.9313 196.691C54.5382 197.189 53.956 197.447 53.3688 197.447Z" fill="#1F296F"/>
<path d="M145.411 47.6857C145.376 47.5464 141.698 33.4445 143.903 25.3287C146.973 14.0482 144.371 6.13641 136.17 1.82723C127.771 -2.58645 111.708 4.57893 106.886 8.91299C104.558 11.0029 101.219 11.5154 98.3724 10.2267C94.098 8.28603 89.1668 8.51493 83.7231 10.8984C78.8715 13.0231 75.2838 17.4169 73.3581 23.5971C72.5172 26.294 69.7057 27.757 66.9639 26.926C63.3066 25.8163 57.8081 25.6422 52.3594 31.0909C48.2442 35.206 46.1692 40.5004 46.3533 46.4019C46.4678 50.1438 44.1291 53.5673 40.6608 54.7366C36.4909 56.1398 33.3411 58.797 31.291 62.6385C28.3203 68.2115 27.4794 79.7607 32.6644 91.9568C36.7397 101.541 42.9299 106.392 43.1936 106.596C43.5469 106.87 43.9748 107.009 44.4077 107.009C44.562 107.009 44.7113 106.989 44.8655 106.954L57.9524 103.864C58.7137 103.685 59.3009 103.073 59.4502 102.302C60.9678 94.4249 64.5257 75.979 87.9477 60.459C107.493 47.5065 142.977 50.1488 143.331 50.1786C143.977 50.2284 144.604 49.9647 145.017 49.4721C145.43 48.9745 145.58 48.3127 145.416 47.6857H145.411Z" fill="#40A192"/>
<path d="M62.2664 110.134C62.5699 113.105 61.8982 115.946 60.4999 118.344C58.3901 121.967 54.6382 124.564 50.1548 125.027C42.6958 125.793 36.028 120.375 35.2617 112.916C34.4954 105.457 39.9142 98.7888 47.3732 98.0225C52.3144 97.515 56.9073 99.7243 59.669 103.441C61.0772 105.337 62.0077 107.621 62.2664 110.134Z" fill="white"/>
<path d="M48.7516 127.092C40.8796 127.092 34.1023 121.121 33.2812 113.12C32.4005 104.581 38.6305 96.9228 47.1693 96.0421C52.6031 95.4798 58.007 97.8633 61.2663 102.252C61.9231 103.133 61.739 104.382 60.8533 105.039C59.9725 105.695 58.7235 105.511 58.0667 104.626C55.6384 101.356 51.6178 99.585 47.5723 100.003C41.218 100.66 36.5803 106.357 37.2372 112.712C37.5556 115.792 39.0534 118.558 41.4519 120.514C43.8503 122.464 46.8657 123.37 49.9459 123.052C52.3144 122.808 54.5138 121.862 56.3102 120.315C57.1412 119.598 58.4001 119.693 59.1167 120.524C59.8332 121.355 59.7386 122.614 58.9076 123.33C56.4943 125.41 53.5336 126.684 50.3539 127.007C49.8165 127.062 49.2791 127.092 48.7467 127.092H48.7516Z" fill="#1F296F"/>
<path d="M48.0947 118.3C47.7563 118.3 47.4179 118.16 47.1691 117.887C46.7113 117.374 46.7511 116.588 47.2587 116.13C48.5475 114.971 49.0849 113.602 48.856 112.075C48.5873 110.278 47.2836 108.636 46.2336 108.149C45.6116 107.86 45.3429 107.119 45.6315 106.497C45.9201 105.875 46.6616 105.606 47.2836 105.894C48.9704 106.681 50.9011 108.935 51.3141 111.711C51.5629 113.368 51.349 115.797 48.9207 117.986C48.6818 118.2 48.3833 118.305 48.0897 118.305L48.0947 118.3Z" fill="#1F296F"/>
<path d="M177.252 204.966C170.211 216.789 160.667 226.95 149.356 234.722C134.632 244.52 117.132 250.645 98.8796 251.277C98.4068 251.297 97.9391 251.312 97.4664 251.317C97.3768 251.322 97.2822 251.322 97.1927 251.322C96.6951 251.327 96.1975 251.337 95.6999 251.337C95.2371 251.337 94.7793 251.332 94.3116 251.322C93.9434 251.322 93.5801 251.317 93.2119 251.302C92.9034 251.297 92.6048 251.287 92.3013 251.267C91.5599 251.247 90.8284 251.212 90.0969 251.168C89.2112 251.113 88.3354 251.058 87.4646 250.979C87.1163 250.954 86.7779 250.919 86.4396 250.889C86.2952 250.874 86.146 250.854 86.0017 250.844C85.3349 250.78 84.6681 250.7 84.0013 250.62C83.4788 250.556 82.9613 250.491 82.4389 250.411C82.1403 250.372 81.8368 250.327 81.5382 250.282C80.8366 250.177 80.1399 250.068 79.4383 249.944C78.9955 249.874 78.5526 249.794 78.1147 249.71C77.6768 249.63 77.2389 249.546 76.806 249.456C76.3681 249.371 75.9352 249.277 75.4973 249.182C74.7062 249.013 73.9199 248.829 73.1337 248.64C72.8849 248.58 72.6311 248.516 72.3724 248.451C71.4319 248.217 70.4865 247.958 69.556 247.69C69.2475 247.605 68.939 247.51 68.6354 247.421C68.2573 247.311 67.8691 247.192 67.4909 247.073C66.7495 246.844 66.0131 246.6 65.2766 246.351C65.1075 246.296 64.9432 246.242 64.779 246.182C64.5352 246.102 64.3013 246.018 64.0575 245.933C63.6445 245.789 63.2315 245.639 62.8284 245.49C62.4154 245.341 62.0124 245.182 61.5994 245.027C61.1913 244.868 60.7883 244.714 60.3802 244.55C57.0961 243.236 53.9015 241.733 50.8114 240.071C50.5029 239.907 50.1944 239.738 49.8958 239.569C47.2038 238.081 44.6013 236.474 42.0835 234.747C41.7451 234.513 41.4018 234.284 41.0684 234.04C39.6552 233.045 38.2719 232.01 36.9184 230.945C36.59 230.682 36.2616 230.423 35.9381 230.154C35.6097 229.891 35.2813 229.622 34.9628 229.348C32.4698 227.273 30.0864 225.069 27.8223 222.745C27.5585 222.481 27.3048 222.213 27.051 221.949C25.394 220.222 23.8116 218.426 22.2939 216.575C22.4382 216.455 22.5925 216.351 22.7666 216.261C22.9508 216.162 41.2873 206.434 51.1298 194.079C51.6125 193.471 76.3333 226.223 114.489 217.296C137.349 211.952 135.11 191.655 135.896 192.297C147.893 202.035 176.724 204.916 177.013 204.941C177.097 204.946 177.177 204.961 177.257 204.976L177.252 204.966Z" fill="#FFCA60"/>
</svg>
