<svg width="277" height="363" viewBox="0 0 277 363" fill="none" xmlns="http://www.w3.org/2000/svg">
<path d="M241.012 203.472H115.427C113.915 203.472 112.69 202.248 112.69 200.736C112.69 199.223 113.915 197.999 115.427 197.999H241.012C242.524 197.999 243.748 199.223 243.748 200.736C243.748 202.248 242.524 203.472 241.012 203.472Z" fill="#1F296F"/>
<path d="M241.012 129.117H115.427C113.915 129.117 112.69 127.893 112.69 126.38C112.69 124.867 113.915 123.643 115.427 123.643H241.012C242.524 123.643 243.748 124.867 243.748 126.38C243.748 127.893 242.524 129.117 241.012 129.117Z" fill="#1F296F"/>
<path d="M241.012 277.828H115.427C113.915 277.828 112.69 276.604 112.69 275.092C112.69 273.579 113.915 272.355 115.427 272.355H241.012C242.524 272.355 243.748 273.579 243.748 275.092C243.748 276.604 242.524 277.828 241.012 277.828Z" fill="#1F296F"/>
<path d="M241.011 352.438C237.334 352.438 234.358 349.457 234.358 345.785V103.475C234.358 99.7983 237.339 96.8226 241.011 96.8226C244.684 96.8226 247.664 99.8032 247.664 103.475V345.785C247.664 349.462 244.684 352.438 241.011 352.438Z" fill="#1F296F"/>
<path d="M115.432 352.438C111.755 352.438 108.779 349.457 108.779 345.785V103.475C108.779 99.7983 111.76 96.8226 115.432 96.8226C119.104 96.8226 122.085 99.8032 122.085 103.475V345.785C122.085 349.462 119.104 352.438 115.432 352.438Z" fill="#1F296F"/>
<path d="M242.936 112.93C272.509 133.276 280.595 185.35 272.285 212.758C266.229 232.731 242.936 236.344 229.909 227.024C225.441 223.829 221.754 220.386 218.748 217.037L241.016 187.241L243.384 154.474L242.941 112.925L242.936 112.93Z" fill="white"/>
<path d="M40.8262 130.878C40.8262 130.878 28.1921 154.812 31.3768 156.858C34.5614 158.903 64.4274 149.09 64.4274 149.09L65.2684 199.76C65.2684 199.76 34.2778 203.318 21.2258 197.203C8.17373 191.087 1.88904 183.056 2.00349 174.164C2.11794 165.272 6.0639 147.12 9.21869 141.218C12.3784 135.322 21.8179 118.647 35.1536 108.85C48.4893 99.0469 66.5521 95.0562 66.5521 95.0562L40.8213 130.878H40.8262Z" fill="white"/>
<path d="M157.355 37.0763L137.824 64.5734C137.824 64.5734 137.446 58.5426 135.47 58.5426C133.495 58.5426 132.654 64.0709 132.888 67.2605C133.122 70.4501 132.888 73.4605 132.888 73.4605C132.888 73.4605 126.474 83.8354 126.563 90.3987C126.653 96.957 131.743 104.356 134.878 106.655C138.013 108.954 141.676 111.079 141.676 111.079C141.676 111.079 142.89 119.419 138.511 128.047C134.132 136.675 132.475 138.67 125.663 142.298C118.851 145.925 158.788 157.042 158.788 157.042L184.887 142.671C184.887 142.671 177.463 138.825 175.592 130.39C173.716 121.961 176.856 115.776 181.135 111.119C185.415 106.461 208.235 75.4608 208.235 75.4608L157.36 37.0713L157.355 37.0763Z" fill="white"/>
<path d="M151.115 116.706C150.971 116.706 150.821 116.681 150.677 116.627C138.426 112.044 130.216 105.769 126.942 98.4744C124.777 93.6527 124.732 88.4727 126.817 83.0887C128.161 79.6155 130.156 75.6198 132.749 71.2111C133.097 70.619 133.858 70.4199 134.45 70.7683C135.042 71.1166 135.242 71.8779 134.893 72.47C132.37 76.7643 130.435 80.6356 129.136 83.9844C127.3 88.7265 127.325 93.2596 129.211 97.4543C132.206 104.127 139.929 109.949 151.548 114.293C152.19 114.532 152.518 115.248 152.279 115.895C152.09 116.393 151.618 116.701 151.115 116.701V116.706Z" fill="#1F296F"/>
<path d="M138.057 66.315C137.371 66.315 136.813 65.7627 136.813 65.076C136.813 64.8272 136.883 64.5883 137.018 64.3843C142.008 56.8109 149.164 47.4014 152.254 43.4803C152.682 42.9429 153.463 42.8484 154.001 43.2713C154.538 43.6992 154.633 44.4805 154.21 45.0179C151.746 48.1428 144.243 57.9404 139.117 65.7179C138.898 66.0761 138.505 66.315 138.057 66.315Z" fill="#1F296F"/>
<path d="M245.853 233.179C239.817 233.179 233.906 231.417 229.184 228.044C225.039 225.078 221.217 221.66 217.818 217.878C217.361 217.365 217.4 216.579 217.913 216.121C218.425 215.664 219.212 215.703 219.669 216.216C222.944 219.863 226.636 223.162 230.632 226.023C237.225 230.741 246.794 231.985 255.004 229.188C262.916 226.496 268.628 220.54 271.091 212.404C275.276 198.596 275.092 178.702 270.604 160.5C265.434 139.521 255.357 122.996 242.226 113.96C241.658 113.572 241.519 112.795 241.907 112.228C242.295 111.661 243.072 111.522 243.639 111.91C274.201 132.943 281.725 185.902 273.475 213.126C270.773 222.048 264.498 228.586 255.805 231.542C252.571 232.642 249.192 233.179 245.853 233.179Z" fill="#1F296F"/>
<path d="M45.6333 201.925C24.0723 201.925 9.54243 196.083 4.43208 185.245C-2.79805 169.91 0.535824 151.23 14.3343 129.724C31.0536 103.67 54.8738 95.5736 61.6611 95.5736C62.3477 95.5736 62.9051 96.1309 62.9051 96.8176C62.9051 97.5043 62.3477 98.0616 61.6611 98.0616C55.4958 98.0616 32.3922 106.187 16.4292 131.067C3.12339 151.807 -0.155842 169.681 6.68118 184.186C11.7816 195.008 27.65 200.372 51.3408 199.303C57.3767 199.029 63.741 198.571 70.2595 197.934C70.9512 197.869 71.5533 198.367 71.618 199.054C71.6827 199.74 71.1851 200.347 70.4984 200.412C63.94 201.054 57.531 201.517 51.4503 201.791C49.4599 201.88 47.5142 201.925 45.6283 201.925H45.6333Z" fill="#1F296F"/>
<path d="M149.251 67.4439C150.342 65.8069 150.575 64.0448 149.77 63.5081C148.965 62.9713 147.428 63.8633 146.336 65.5003C145.244 67.1373 145.012 68.8995 145.817 69.4362C146.621 69.9729 148.159 69.081 149.251 67.4439Z" fill="#1F296F"/>
<path d="M157.354 66.2998C156.573 66.2998 155.836 65.837 155.518 65.0757L152.463 57.7411C152.04 56.726 152.517 55.5617 153.532 55.1387C154.548 54.7158 155.712 55.1984 156.135 56.2085L159.19 63.5431C159.613 64.5582 159.135 65.7226 158.12 66.1455C157.872 66.25 157.613 66.2998 157.354 66.2998Z" fill="#1F296F"/>
<path d="M133.823 73.0872C133.519 73.0872 133.211 72.9778 132.972 72.7489C130.479 70.4102 132.036 62.3143 133.365 59.5228C133.589 59.0501 134.276 57.622 135.584 57.8011C137.465 58.0549 137.998 60.299 138.465 62.2795C138.659 63.0955 138.878 64.021 139.122 64.439C139.471 65.0311 139.271 65.7925 138.679 66.1408C138.087 66.4891 137.326 66.2901 136.978 65.6979C136.54 64.9565 136.301 63.9315 136.042 62.8517C135.913 62.2994 135.709 61.4335 135.485 60.8414C134.853 62.3541 134.072 65.678 134.131 68.4646C134.171 70.4102 134.619 70.8879 134.674 70.9327C135.176 71.4054 135.201 72.1916 134.728 72.6892C134.485 72.9479 134.151 73.0823 133.818 73.0823L133.823 73.0872Z" fill="#1F296F"/>
<path d="M141.854 82.9994C140.088 82.9994 138.351 82.3376 137.048 81.2927C136.51 80.8647 136.426 80.0785 136.854 79.5461C137.281 79.0087 138.068 78.9241 138.6 79.352C140.237 80.6607 142.85 81.0986 144.681 79.4067C145.188 78.939 145.975 78.9738 146.437 79.4764C146.905 79.979 146.87 80.7702 146.368 81.2329C145.019 82.4769 143.422 82.9994 141.854 82.9994Z" fill="#1F296F"/>
<path d="M153.229 75.7743C153 75.7743 152.767 75.7096 152.558 75.5753L149.448 73.58C148.87 73.2068 148.701 72.4404 149.074 71.8583C149.443 71.2811 150.214 71.1119 150.791 71.4851L153.901 73.4804C154.478 73.8536 154.648 74.6199 154.274 75.2021C154.036 75.5703 153.637 75.7743 153.224 75.7743H153.229Z" fill="#FAE16E"/>
<path d="M247.669 108.168V123.235L238.16 121.13L239.514 109.447L247.669 108.168Z" fill="#1F296F"/>
<path d="M214.838 61.1101C211.912 52.029 206.538 42.4652 200.099 34.8718C194.68 28.4777 183.807 20.8197 173.512 18.5557C166.67 17.048 157.41 17.0728 152.165 25.731C145.885 36.091 153.802 49.3619 161.396 59.7666C168.427 69.4 181.205 79.0285 184.554 81.4717C183.663 83.696 181.339 89.6671 179.448 95.8921C174.945 110.73 176.697 114.204 178.408 115.527C179.419 116.308 180.787 116.702 182.449 116.702C183.36 116.702 184.36 116.582 185.44 116.343C194.053 114.433 206.991 105.053 214.007 91.4386C218.276 83.1536 218.56 72.6693 214.833 61.1051L214.838 61.1101Z" fill="#1F296F"/>
<path d="M220.144 61.1579C229.646 57.4686 235.58 49.9235 233.399 44.3054C231.218 38.6874 221.746 37.1238 212.245 40.8131C202.743 44.5024 196.808 52.0475 198.99 57.6656C201.171 63.2837 210.642 64.8472 220.144 61.1579Z" fill="#1F296F"/>
<path d="M216.201 65.5537C215.589 65.5537 215.057 65.1009 214.972 64.4789C213.783 55.9252 208.832 47.1078 205.712 44.0277C205.224 43.545 205.219 42.7588 205.702 42.2662C206.184 41.7785 206.971 41.7736 207.463 42.2563C210.707 45.4558 216.121 54.6215 217.44 64.1355C217.535 64.8173 217.062 65.4442 216.38 65.5388C216.32 65.5487 216.266 65.5487 216.206 65.5487L216.201 65.5537Z" fill="#FAE16E"/>
<path d="M151.369 116.682L141.546 118.11L142.82 111.785L151.369 116.682Z" fill="#1F296F"/>
<path d="M29.0093 160.759C26.591 159.361 25.765 156.27 27.1583 153.852L74.3457 72.1219L83.1035 77.1775L35.916 158.908C34.5178 161.326 31.4277 162.152 29.0093 160.759Z" fill="#1F296F"/>
<path d="M117.769 60.042C128.339 41.7353 126.788 21.0523 114.305 13.8453C101.822 6.63831 83.1339 15.6364 72.5645 33.9431C61.995 52.2498 63.5462 72.9328 76.0292 80.1398C88.5123 87.3468 107.2 78.3487 117.769 60.042Z" fill="white"/>
<path d="M85.6411 83.8801C81.9539 83.8801 78.4856 82.9944 75.4104 81.213C69.0063 77.5159 65.1002 70.4401 64.4135 61.2943C63.7417 52.3226 66.2546 42.3856 71.4894 33.3194C76.7241 24.2532 84.0737 17.1077 92.1796 13.2066C100.445 9.2258 108.526 9.07154 114.93 12.7687C127.987 20.3073 129.748 41.7935 118.851 60.6623C113.616 69.7285 106.267 76.874 98.1607 80.7751C93.8714 82.8402 89.6269 83.8752 85.6411 83.8752V83.8801ZM104.689 12.5995C101.077 12.5995 97.2004 13.5499 93.2544 15.4507C85.5914 19.1379 78.6299 25.9301 73.639 34.5684C68.653 43.2066 66.2546 52.6361 66.8915 61.1102C67.5135 69.4101 70.9818 75.7892 76.6495 79.0634C82.3172 82.3376 89.5721 82.1535 97.0759 78.5409C104.734 74.8538 111.7 68.0616 116.691 59.4233C126.902 41.7387 125.549 21.7801 113.681 14.9282C110.994 13.3757 107.949 12.5995 104.689 12.5995Z" fill="#1F296F"/>
<path d="M77.0676 45.4955C76.9432 45.4955 76.8138 45.4756 76.6894 45.4358C76.0376 45.2268 75.6743 44.5252 75.8833 43.8734C79.5009 32.5929 89.0598 23.3625 96.2103 20.9541C96.8621 20.7351 97.5687 21.0835 97.7877 21.7353C98.0066 22.3872 97.6583 23.0937 97.0064 23.3127C90.5824 25.4772 81.5908 34.2449 78.2569 44.6347C78.0877 45.1621 77.6 45.5005 77.0726 45.5005L77.0676 45.4955Z" fill="#1F296F"/>
<path d="M45.9025 121.389C43.3697 123.553 30.1086 154.822 31.3825 156.858H32.2882C33.2386 158.38 53.5257 150.09 78.1669 146.916L69.7973 187.266L15.5986 165.322L31.2979 118.11L45.9075 121.389H45.9025Z" fill="white"/>
<path d="M47.1865 112.123C48.6842 111.695 58.6462 109.835 61.6169 112.546C64.5875 115.258 64.7866 116.93 62.4429 118.911C60.0942 120.891 54.4216 120.304 49.0873 120.125C43.7531 119.946 44.2307 114.766 44.2307 114.766L47.1865 112.123Z" fill="white"/>
<path d="M31.3829 158.102C30.9699 158.102 30.5619 157.893 30.328 157.519C29.9498 156.917 29.0691 155.509 36.0703 138.695C36.7669 137.023 42.9422 122.29 45.0968 120.444C47.6743 118.234 51.3417 118.17 56.4172 118.08C57.0591 118.07 57.7309 118.055 58.4275 118.04C61.0996 117.975 62.5227 117.025 62.7516 116.104C62.9556 115.293 62.2889 114.343 61.01 113.626C57.8005 111.82 53.1728 111.969 49.9085 112.711C49.2368 112.865 48.57 112.442 48.4207 111.775C48.2665 111.104 48.6894 110.437 49.3562 110.288C51.1575 109.88 57.4123 108.75 62.2291 111.462C64.5231 112.756 65.6476 114.766 65.16 116.712C64.7171 118.493 62.7268 120.429 58.4773 120.528C57.7756 120.543 57.0989 120.558 56.452 120.568C51.7298 120.653 48.6098 120.707 46.709 122.329C45.873 123.076 42.5541 129.649 38.6429 138.969C34.5726 148.672 32.4776 155.121 32.5324 156.39C32.7513 156.937 32.5523 157.584 32.0348 157.908C31.8308 158.037 31.6018 158.097 31.3779 158.097L31.3829 158.102Z" fill="#1F296F"/>
<path d="M133.449 138.725C133.151 138.725 132.852 138.621 132.618 138.402C132.111 137.939 132.071 137.153 132.529 136.645C138.978 129.505 140.441 116 140.734 112.029C140.784 111.342 141.381 110.83 142.068 110.88C142.754 110.929 143.267 111.527 143.217 112.213C142.824 117.557 141.172 130.798 134.38 138.312C134.136 138.586 133.798 138.72 133.454 138.72L133.449 138.725Z" fill="#1F296F"/>
<path d="M32.0488 158.296C31.1033 158.296 30.6405 158.032 30.3221 157.519C29.9588 156.937 30.133 156.171 30.7202 155.803C31.1431 155.539 31.6656 155.559 32.0538 155.813C32.0786 155.813 32.1035 155.813 32.1333 155.813C33.3923 155.813 37.7214 154.688 42.2894 153.504C48.6785 151.847 57.4214 149.578 67.1893 147.742C67.866 147.617 68.5129 148.06 68.6422 148.737C68.7666 149.414 68.3238 150.06 67.647 150.19C57.9637 152.011 49.2607 154.27 42.9114 155.917C36.7063 157.529 33.661 158.296 32.0438 158.296H32.0488Z" fill="#1F296F"/>
<path d="M180.07 139.944C179.731 139.944 179.398 139.81 179.154 139.541C175.447 135.501 173.641 130.545 173.641 124.389C173.641 117.751 178.079 113.567 183.702 108.267C184.951 107.093 186.24 105.879 187.578 104.55C188.066 104.068 188.852 104.068 189.34 104.555C189.823 105.043 189.823 105.829 189.335 106.317C187.972 107.67 186.673 108.894 185.414 110.079C180.025 115.154 176.134 118.826 176.134 124.389C176.134 129.953 177.721 134.297 180.99 137.859C181.453 138.367 181.423 139.153 180.916 139.616C180.677 139.835 180.373 139.944 180.075 139.944H180.07Z" fill="#1F296F"/>
<path d="M182.076 80.9292C185.405 79.5061 189.256 81.0486 190.684 84.3775C192.107 87.7064 190.565 91.5579 187.236 92.986C184.623 94.1055 181.688 93.394 179.856 91.4235L182.081 80.9292H182.076Z" fill="white"/>
<path d="M184.663 94.7523C182.538 94.7523 180.444 93.8865 178.941 92.2693C178.473 91.7668 178.503 90.9805 179.005 90.5128C179.508 90.0451 180.294 90.0749 180.762 90.5775C182.285 92.2146 184.688 92.7221 186.743 91.8414C188.047 91.2841 189.057 90.2491 189.584 88.9354C190.112 87.6168 190.097 86.1738 189.535 84.8701C188.977 83.5664 187.942 82.5562 186.629 82.0288C185.31 81.5013 183.867 81.5163 182.563 82.0785C181.931 82.3472 181.2 82.0586 180.931 81.4217C180.662 80.7898 180.956 80.0583 181.588 79.7896C183.504 78.9686 185.624 78.9437 187.559 79.7199C189.495 80.4962 191.008 81.979 191.829 83.8898C192.65 85.8006 192.675 87.9253 191.898 89.861C191.122 91.7966 189.639 93.3093 187.728 94.1303C186.743 94.5533 185.703 94.7573 184.668 94.7573L184.663 94.7523Z" fill="#1F296F"/>
<path d="M183.185 88.7961C182.827 88.7961 182.473 88.6419 182.224 88.3433C181.787 87.8158 181.861 87.0296 182.394 86.5917L185.091 84.3625C185.618 83.9246 186.404 83.9993 186.842 84.5317C187.28 85.0591 187.205 85.8454 186.673 86.2832L183.976 88.5125C183.742 88.7015 183.464 88.7961 183.185 88.7961Z" fill="#1F296F"/>
<path d="M187.321 102.385C188.823 108.69 188.152 111.377 186.619 111.74C185.086 112.104 183.275 110.009 181.772 103.709C180.683 99.1461 180.862 93.4437 181.041 90.6372C181.076 90.0899 181.797 89.9157 182.076 90.3884C183.504 92.8117 186.236 97.8225 187.321 102.385Z" fill="#FAE16E"/>
<path d="M247.668 123.379C244.031 122.389 236.736 121.095 234.358 121.961C232.138 122.767 230.994 126.042 233.701 128.042C235.358 129.266 238.065 130.709 241.01 131.565C241.1 131.182 239.368 144.069 239.224 154.196C239.04 167.098 239.473 171.094 239.473 171.094L254.247 192.232L247.663 123.384L247.668 123.379Z" fill="white"/>
<path d="M239.473 172.338C238.846 172.338 238.309 171.865 238.239 171.228C238.219 171.064 237.801 167.014 237.985 154.181C238.065 148.583 238.627 141.273 239.667 132.451C237.229 131.63 234.781 130.391 232.964 129.052C231.417 127.913 230.675 126.266 230.924 124.539C231.168 122.842 232.352 121.374 233.935 120.802C237.119 119.648 245.837 121.598 247.997 122.19C248.659 122.369 249.052 123.056 248.873 123.718C248.694 124.38 248.007 124.773 247.345 124.594C242.966 123.404 236.527 122.514 234.786 123.146C234.064 123.409 233.502 124.116 233.387 124.902C233.303 125.469 233.422 126.305 234.442 127.057C235.846 128.092 238.353 129.49 241.225 130.346C242.115 130.5 242.26 131.127 242.225 131.859C242.215 132.102 242.185 132.341 242.155 132.575C241.115 141.393 240.548 148.677 240.473 154.226C240.294 166.845 240.712 170.935 240.712 170.975C240.782 171.656 240.289 172.268 239.607 172.343C239.563 172.343 239.518 172.348 239.473 172.348V172.338Z" fill="#1F296F"/>
<path d="M254.252 193.471C253.839 193.471 253.441 193.267 253.202 192.893C253.177 192.854 250.51 188.664 246.559 182.976C246.166 182.414 246.305 181.638 246.873 181.245C247.435 180.852 248.211 180.991 248.604 181.558C252.585 187.295 255.277 191.52 255.302 191.56C255.67 192.142 255.501 192.908 254.919 193.277C254.71 193.406 254.481 193.471 254.252 193.471Z" fill="#1F296F"/>
<path d="M247.814 351.273C241.887 353.249 227.427 357.389 203.97 360.036C203.049 360.135 202.114 360.245 201.174 360.339C190.002 361.509 176.901 362.325 161.838 362.424C152.643 362.484 143.86 362.126 135.58 361.479C134.649 361.404 133.724 361.334 132.808 361.255C117.552 359.926 104.077 357.637 92.9505 355.194C92.0001 354.98 91.0695 354.776 90.154 354.562C76.1565 351.353 66.2493 348.009 61.7261 346.357C60.2183 345.81 59.4869 344.093 60.1288 342.62L78.0822 301.399L79.3909 298.399L95.1748 262.159L146.248 241.479L204.93 264.721L208.588 271.518L209.941 274.026L237.269 324.776L238.583 327.219L249.396 347.302C250.217 348.825 249.471 350.726 247.819 351.273H247.814Z" fill="#5656AF"/>
<path d="M238.574 327.224C228.577 331.11 216.639 334.509 204.1 336.878C202.637 337.156 201.174 337.415 199.721 337.659C198.78 337.808 197.85 337.962 196.914 338.102C187.808 339.495 179.056 340.207 171.069 340.207C169.034 340.207 167.053 340.162 165.118 340.067C156.987 339.674 150.011 338.48 144.283 336.494C143.408 336.196 142.557 335.873 141.741 335.534C139.223 334.489 136.974 333.27 135.013 331.882C121.006 321.95 112.148 310.689 107.954 297.453C104.386 286.207 104.237 273.444 107.501 258.447C107.665 257.69 108.411 257.217 109.158 257.382C109.914 257.546 110.392 258.287 110.233 259.039C103.475 290.114 111.611 311.878 136.625 329.603C138.461 330.906 140.616 332.051 143.039 333.026C143.86 333.36 144.711 333.673 145.597 333.972C157.619 337.977 175.344 338.53 195.889 335.435C196.82 335.295 197.76 335.151 198.706 334.992C200.313 334.728 201.94 334.439 203.582 334.131C215.853 331.817 227.517 328.528 237.255 324.786L238.569 327.229L238.574 327.224Z" fill="white"/>
<path d="M209.931 274.031C197.735 278.321 185.608 286.397 174.77 296.463C174.089 297.095 173.412 297.737 172.735 298.389C161.833 308.923 152.354 321.417 145.596 333.962C145.143 334.808 144.701 335.644 144.278 336.485C139.914 345.053 136.868 353.587 135.565 361.474C134.634 361.399 133.709 361.33 132.793 361.25C134.127 353.264 137.207 344.476 141.735 335.519C142.153 334.683 142.591 333.847 143.039 333.011C147.84 324.02 154.07 314.919 161.42 306.36C164.51 302.763 167.69 299.384 170.929 296.239C171.601 295.587 172.278 294.935 172.954 294.308C184.449 283.57 196.665 275.763 208.572 271.518L209.926 274.026L209.931 274.031Z" fill="white"/>
<path d="M79.3809 298.403C84.5161 305.638 88.5914 314.963 91.0346 325.433C93.448 335.793 94.0551 346.013 92.9454 355.194C91.995 354.98 91.0645 354.776 90.1489 354.562C91.179 345.72 90.6017 335.872 88.3177 326.065C86.1134 316.595 82.5406 308.116 78.0771 301.404L79.3858 298.403H79.3809Z" fill="white"/>
<path d="M203.965 360.041C203.044 360.14 202.109 360.25 201.168 360.344C201.243 352.915 199.591 345.391 196.919 338.102C196.596 337.206 196.247 336.315 195.899 335.43C191.256 323.935 184.235 313.157 177.592 304.479C175.995 302.389 174.373 300.364 172.746 298.394C172.143 297.667 171.546 296.95 170.939 296.249C157.828 280.858 144.691 269.916 140.979 267.791C140.307 267.408 140.078 266.557 140.466 265.886C140.844 265.214 141.7 264.985 142.372 265.368C146.323 267.637 159.559 278.569 172.965 294.313C173.572 295.025 174.179 295.736 174.776 296.463C176.463 298.498 178.149 300.603 179.807 302.777C186.688 311.779 193.968 322.98 198.71 334.987C199.064 335.868 199.397 336.763 199.72 337.659C202.353 344.969 203.975 352.532 203.965 360.041Z" fill="white"/>
<path d="M248.669 181.165C248.172 180.498 236.413 164.754 225.949 157.728C216.017 151.061 204.895 147.891 196.774 145.577C193.535 144.652 190.744 143.855 188.957 143.074C185.554 141.586 181.896 137.869 181.861 137.834C181.488 137.456 180.921 137.352 180.438 137.581C180.349 137.62 171.337 141.81 157.937 141.82H157.867C147.885 141.82 138.66 140.099 133.176 137.207C132.728 136.974 132.181 137.028 131.793 137.357C131.116 137.929 129.156 139.506 128.21 139.959C122.005 142.93 113.407 143.318 102.519 143.811C95.3237 144.134 87.1731 144.502 78.0073 145.687C74.3449 146.159 66.6769 147.518 66.3485 147.572C65.8807 147.657 65.4976 148 65.3682 148.458C65.0597 149.548 57.9142 175.488 68.9012 200.477C69.1301 200.994 69.6824 201.298 70.2348 201.203L91.1887 197.85L93.9255 262.214C93.9454 262.686 94.229 263.104 94.6619 263.298C94.8858 263.398 117.313 273.25 151.135 273.25C184.956 273.25 205.154 265.975 205.353 265.901C205.831 265.727 206.154 265.279 206.169 264.771L207.951 204.632C209.682 208.473 212.573 213.633 217.201 218.788C217.589 219.216 218.221 219.326 218.729 219.047C219.724 218.495 243.23 205.309 248.883 182.21C248.973 181.852 248.893 181.469 248.674 181.17L248.669 181.165Z" fill="#40A192"/>
<path d="M79.1321 199.76C78.739 199.76 78.3508 199.571 78.107 199.223C70.4738 188.176 69.2447 163.426 72.8822 147.244C73.0315 146.572 73.6983 146.154 74.37 146.304C75.0418 146.453 75.4598 147.12 75.3105 147.791C71.7875 163.461 72.8921 187.296 80.1521 197.81C80.5452 198.377 80.4009 199.148 79.8337 199.541C79.6197 199.691 79.3709 199.76 79.1271 199.76H79.1321Z" fill="#CCCCCC"/>
<path d="M213.872 213.808C213.389 213.808 212.932 213.529 212.728 213.056C212.454 212.424 212.747 211.693 213.374 211.419C224.715 206.518 238.822 191.535 241.842 175.881C241.972 175.204 242.628 174.766 243.3 174.896C243.977 175.025 244.415 175.677 244.285 176.354C241.111 192.804 226.282 208.548 214.36 213.703C214.201 213.773 214.031 213.808 213.867 213.808H213.872Z" fill="#CCCCCC"/>
<path d="M156.588 267.468C155.971 267.468 155.364 267.458 154.772 267.443C124.055 266.657 99.2947 258.72 96.4684 256.765C95.9011 256.372 95.7618 255.601 96.1549 255.033C96.548 254.466 97.3242 254.327 97.8865 254.72C99.8421 256.073 123.13 264.149 154.837 264.96C168.829 265.319 190.699 261.308 202.606 256.203C203.238 255.934 203.97 256.223 204.239 256.855C204.507 257.486 204.219 258.218 203.587 258.487C191.913 263.492 170.889 267.468 156.588 267.468Z" fill="#CCCCCC"/>
<path d="M91.1787 197.865L104.295 195.655C104.843 195.556 105.181 196.233 104.773 196.616L91.6614 208.951L91.1787 197.865Z" fill="#1F296F"/>
</svg>
