<svg width="210" height="413" viewBox="0 0 210 413" fill="none" xmlns="http://www.w3.org/2000/svg">
<path d="M30.2803 142.914L198.584 162.953L169.881 404.018C169.321 408.722 165.047 412.086 160.343 411.526L9.08608 393.517C4.38215 392.957 1.01745 388.683 1.57753 383.979L30.2803 142.914Z" fill="white"/>
<path d="M161.382 412.834C160.989 412.834 160.596 412.81 160.203 412.765L8.9471 394.757C6.33968 394.448 4.01094 393.14 2.38877 391.08C0.766593 389.019 0.0401139 386.447 0.353602 383.839L29.0551 142.774C29.1348 142.092 29.7518 141.605 30.4385 141.684L198.742 161.723C199.423 161.802 199.911 162.424 199.831 163.106L171.13 404.171C170.821 406.779 169.513 409.107 167.453 410.73C165.701 412.108 163.586 412.834 161.392 412.834H161.382ZM160.491 410.292C162.437 410.521 164.358 409.983 165.9 408.769C167.443 407.555 168.418 405.818 168.647 403.868L197.204 164.041L31.374 144.297L2.8167 384.128C2.58283 386.074 3.12524 387.994 4.33938 389.537C5.55353 391.079 7.29014 392.055 9.24073 392.284L160.496 410.292H160.491Z" fill="#40A192"/>
<path d="M146.495 282.633C146.445 282.633 146.395 282.633 146.345 282.623L79.8062 274.702C79.1245 274.622 78.6369 274 78.7165 273.318C78.7961 272.637 79.4182 272.149 80.0999 272.229L146.639 280.15C147.321 280.23 147.808 280.852 147.729 281.534C147.654 282.166 147.117 282.628 146.495 282.628V282.633Z" fill="#4D4D9E"/>
<path d="M121.644 292.819C121.594 292.819 121.544 292.819 121.495 292.809L78.2682 287.664C77.5865 287.584 77.0988 286.962 77.1784 286.281C77.2581 285.599 77.8751 285.111 78.5618 285.191L121.788 290.336C122.47 290.416 122.958 291.038 122.878 291.719C122.803 292.351 122.266 292.814 121.644 292.814V292.819Z" fill="#4D4D9E"/>
<path d="M47.5461 284.38C51.9569 284.38 55.5325 280.804 55.5325 276.394C55.5325 271.983 51.9569 268.407 47.5461 268.407C43.1353 268.407 39.5596 271.983 39.5596 276.394C39.5596 280.804 43.1353 284.38 47.5461 284.38Z" fill="#40A192"/>
<path d="M141.433 325.128C141.383 325.128 141.334 325.128 141.284 325.118L74.7448 317.196C74.0631 317.117 73.5754 316.495 73.655 315.813C73.7346 315.131 74.3566 314.644 75.0383 314.723L141.577 322.645C142.259 322.725 142.747 323.347 142.667 324.028C142.593 324.66 142.055 325.123 141.433 325.123V325.128Z" fill="#4D4D9E"/>
<path d="M130.485 336.966C130.436 336.966 130.386 336.966 130.336 336.956L73.2017 330.154C72.52 330.074 72.0324 329.452 72.112 328.77C72.1916 328.089 72.8087 327.601 73.4954 327.681L130.63 334.483C131.311 334.563 131.799 335.184 131.72 335.866C131.645 336.498 131.107 336.961 130.485 336.961V336.966Z" fill="#4D4D9E"/>
<path d="M42.5948 326.516C47.0057 326.516 50.5813 322.941 50.5813 318.53C50.5813 314.119 47.0057 310.544 42.5948 310.544C38.184 310.544 34.6084 314.119 34.6084 318.53C34.6084 322.941 38.184 326.516 42.5948 326.516Z" fill="#FFBB61"/>
<path d="M116.145 232.853C167.599 232.853 209.311 191.142 209.311 139.688C209.311 88.2348 167.599 46.5234 116.145 46.5234C64.6912 46.5234 22.9795 88.2348 22.9795 139.688C22.9795 191.142 64.6912 232.853 116.145 232.853Z" fill="#FFCA60"/>
<path d="M176.967 148.496C175.046 161.648 172.563 185.044 184.117 202.212L184.242 203.271C167.239 221.474 143.021 232.854 116.145 232.854C84.7616 232.854 57.0055 217.338 40.1318 193.558C40.7538 193.558 76.7403 193.464 93.2855 182.422C108.447 172.311 112.483 149.864 113.06 139.684L110.393 139.171C85.921 134.961 79.9946 120.437 79.9946 110.375C79.9946 103.1 85.5925 72.9958 89.9963 50.2457C91.6881 41.5378 93.1959 33.8947 94.1463 29.0381L196.493 62.6756C195.831 65.2631 193.736 73.6775 191.138 84.4057C185.919 105.967 178.664 136.872 176.967 148.501V148.496Z" fill="white"/>
<path d="M177.201 187.896C176.3 187.896 175.479 187.279 175.265 186.363C172.065 172.789 173.444 158.841 174.996 148.207C177.678 129.866 188.153 88.7248 189.337 84.0922C189.611 83.0273 190.691 82.3854 191.76 82.6591C192.825 82.9328 193.467 84.0176 193.194 85.0824C192.014 89.6901 181.59 130.642 178.932 148.785C177.43 159.07 176.091 172.535 179.136 185.453C179.39 186.522 178.723 187.592 177.654 187.846C177.499 187.881 177.345 187.901 177.196 187.901L177.201 187.896Z" fill="#1F296F"/>
<path d="M98.1371 180.581C97.6147 180.581 97.0972 180.377 96.7041 179.974C95.9377 179.183 95.9626 177.924 96.7538 177.158C109.015 165.315 110.831 143.769 111.07 139.574C111.129 138.474 112.09 137.638 113.17 137.698C114.269 137.763 115.105 138.703 115.046 139.798C114.687 146.063 112.513 167.469 99.5204 180.019C99.1323 180.392 98.6347 180.576 98.1371 180.576V180.581Z" fill="#1F296F"/>
<path d="M96.8434 58.9288C95.49 58.9288 94.3157 57.9286 94.1315 56.5503C93.9325 55.0525 94.9874 53.6792 96.4852 53.4801L108.243 51.9276C109.746 51.7286 111.12 52.7835 111.314 54.2812C111.513 55.779 110.458 57.1524 108.96 57.3514L97.2018 58.9039C97.0823 58.9188 96.9579 58.9288 96.8385 58.9288H96.8434Z" fill="#1F296F"/>
<path d="M147.728 68.0199C147.345 68.0199 146.962 67.9403 146.589 67.7711L135.801 62.8349C134.427 62.208 133.82 60.5808 134.452 59.2075C135.079 57.8341 136.706 57.227 138.08 57.859L148.868 62.7951C150.241 63.4221 150.848 65.0492 150.216 66.4226C149.759 67.4277 148.763 68.0199 147.728 68.0199Z" fill="#1F296F"/>
<path d="M103.177 75.1866C103.512 72.3677 102.641 69.9463 101.23 69.7783C99.8191 69.6104 98.4033 71.7594 98.0677 74.5783C97.7321 77.3972 98.6037 79.8186 100.015 79.9866C101.425 80.1546 102.841 78.0055 103.177 75.1866Z" fill="#1F296F"/>
<path d="M100.625 87.6152C93.604 87.6152 87.8965 81.9028 87.8965 74.8867C87.8965 67.8706 93.609 62.1582 100.625 62.1582C107.641 62.1582 113.354 67.8706 113.354 74.8867C113.354 81.9028 107.641 87.6152 100.625 87.6152ZM100.625 64.6412C94.9774 64.6412 90.3845 69.234 90.3845 74.8817C90.3845 80.5294 94.9774 85.1223 100.625 85.1223C106.273 85.1223 110.866 80.5294 110.866 74.8817C110.866 69.234 106.273 64.6412 100.625 64.6412Z" fill="#1F296F"/>
<path d="M138.797 82.9195C139.133 80.1006 138.261 77.6792 136.85 77.5113C135.439 77.3433 134.023 79.4923 133.688 82.3112C133.352 85.1301 134.224 87.5515 135.635 87.7194C137.045 87.8874 138.461 85.7384 138.797 82.9195Z" fill="#1F296F"/>
<path d="M136.243 95.3478C129.222 95.3478 123.515 89.6354 123.515 82.6193C123.515 75.6032 129.227 69.8908 136.243 69.8908C143.259 69.8908 148.972 75.6032 148.972 82.6193C148.972 89.6354 143.259 95.3478 136.243 95.3478ZM136.243 72.3738C130.595 72.3738 126.003 76.9666 126.003 82.6143C126.003 88.2621 130.595 92.8549 136.243 92.8549C141.891 92.8549 146.484 88.2621 146.484 82.6143C146.484 76.9666 141.891 72.3738 136.243 72.3738Z" fill="#1F296F"/>
<path d="M123.968 81.1514C123.903 81.1514 123.839 81.1464 123.774 81.1365L111.916 79.2755C111.239 79.171 110.772 78.534 110.881 77.8523C110.986 77.1756 111.623 76.7128 112.304 76.8173L124.162 78.6783C124.839 78.7828 125.307 79.4198 125.197 80.1015C125.102 80.7135 124.57 81.1514 123.968 81.1514Z" fill="#1F296F"/>
<path d="M147.728 85.9781C147.111 85.9781 146.574 85.5154 146.494 84.8884C146.409 84.2067 146.892 83.5847 147.574 83.5001L178.291 79.6587C178.972 79.5741 179.594 80.0568 179.679 80.7385C179.764 81.4202 179.281 82.0422 178.599 82.1268L147.882 85.9682C147.828 85.9732 147.778 85.9781 147.728 85.9781Z" fill="#1F296F"/>
<path d="M110.259 96.6814C110 96.6814 109.736 96.6018 109.512 96.4326C107.641 95.0194 106.786 92.7952 106.776 91.2178C106.766 90.0932 107.149 89.1727 107.85 88.6253C109.01 87.7197 110.423 88.5159 111.786 89.2921C112.727 89.8245 114.145 90.6306 114.563 90.2027C116.076 88.6602 116.275 85.6746 116.275 85.6447C116.31 84.958 116.892 84.4356 117.583 84.4704C118.27 84.5052 118.798 85.0924 118.758 85.7791C118.748 85.9383 118.529 89.7151 116.334 91.9443C114.578 93.7356 112.16 92.3623 110.557 91.4566C110.174 91.2377 109.647 90.9392 109.298 90.7949C109.269 90.9193 109.249 91.1083 109.269 91.3621C109.338 92.2976 109.901 93.6112 111.01 94.4472C111.558 94.8602 111.667 95.6414 111.254 96.1888C111.01 96.5122 110.637 96.6814 110.259 96.6814Z" fill="#1F296F"/>
<path d="M119.485 106.459C118.997 106.459 118.494 106.444 117.972 106.415C117.285 106.375 116.763 105.788 116.798 105.106C116.837 104.419 117.419 103.887 118.106 103.932C123.58 104.23 126.68 102.897 129.939 98.8163C130.367 98.2789 131.153 98.1943 131.686 98.6223C132.218 99.0502 132.308 99.8364 131.88 100.369C128.436 104.673 124.869 106.454 119.48 106.454L119.485 106.459Z" fill="#1F296F"/>
<path d="M135.79 144.913C135.606 144.913 131.541 144.834 110.054 141.137C80.3129 136.016 77.999 116.297 77.999 110.375C77.999 100.777 86.6424 56.8587 90.7973 35.7507L91.5536 31.9143C91.7626 30.8345 92.8076 30.1329 93.8924 30.3468C94.9722 30.5608 95.6738 31.6057 95.4599 32.6855L94.7035 36.522C90.8968 55.8685 81.9798 101.165 81.9798 110.375C81.9798 116.958 84.7813 132.747 110.726 137.211C131.546 140.793 135.656 140.928 135.82 140.933C136.915 140.957 137.786 141.863 137.771 142.958C137.751 144.043 136.87 144.913 135.785 144.913H135.79Z" fill="#1F296F"/>
<path d="M193.582 25.2763C182.018 10.6769 137.567 0.237305 118.395 0.237305C118.27 0.237305 118.146 0.237305 118.027 0.237305C106.617 0.31692 97.4657 3.36718 92.2608 8.82084C88.6482 12.6075 86.9315 17.4044 87.1504 23.0869C87.7824 39.209 102.263 42.5927 117.589 46.1704C123.639 47.5836 129.476 48.3996 135.124 49.1908C144.086 50.4448 152.55 51.629 160.865 55.0177C172.753 59.8643 187.059 75.4241 187.203 75.5833C187.581 75.9963 188.113 76.2302 188.671 76.2302H195.782C196.608 76.2302 197.349 75.7177 197.643 74.9464C201.902 63.6908 207.042 42.2693 193.582 25.2763Z" fill="#4D4D9E"/>
<path d="M191.551 95.4523C197.471 95.4523 202.27 90.6536 202.27 84.7341C202.27 78.8146 197.471 74.0159 191.551 74.0159C185.632 74.0159 180.833 78.8146 180.833 84.7341C180.833 90.6536 185.632 95.4523 191.551 95.4523Z" fill="white"/>
<path d="M191.552 97.4377C188.422 97.4377 185.302 96.2883 182.884 94.0292C182.082 93.2779 182.038 92.0189 182.789 91.2178C183.54 90.4167 184.799 90.3719 185.6 91.1232C188.646 93.9695 193.313 94.2531 196.687 91.79C198.573 90.4167 199.807 88.3915 200.17 86.0926C200.533 83.7887 199.976 81.4848 198.603 79.5989C195.771 75.7077 190.298 74.8469 186.412 77.6832C185.526 78.33 184.277 78.136 183.63 77.2453C182.983 76.3546 183.177 75.1106 184.068 74.4637C189.731 70.3386 197.697 71.5926 201.822 77.2552C203.823 79.997 204.629 83.3558 204.101 86.7096C203.574 90.0634 201.772 93.0091 199.026 95.0095C196.787 96.6416 194.159 97.4427 191.542 97.4427L191.552 97.4377Z" fill="#1F296F"/>
<path d="M191.328 90.4664C190.925 90.4664 190.532 90.2723 190.293 89.9141C188.168 86.7294 188.496 82.689 191.109 79.8576C191.577 79.3551 192.363 79.3202 192.865 79.788C193.368 80.2557 193.403 81.0419 192.935 81.5445C191.089 83.5448 190.86 86.2866 192.358 88.5307C192.741 89.103 192.587 89.8743 192.014 90.2574C191.8 90.4017 191.562 90.4664 191.323 90.4664H191.328Z" fill="#1F296F"/>
<path d="M186.352 200.933C169.274 220.493 144.155 232.854 116.145 232.854C83.8461 232.854 55.3784 216.413 38.6641 191.449C39.087 191.155 39.5945 190.991 40.122 190.991C40.4703 190.991 75.163 190.856 91.9073 180.253C93.216 179.422 95.3755 177.61 96.102 176.983C96.724 176.446 114.379 184.009 132.447 185.91C160.472 188.861 179.604 185.159 179.823 185.841C179.853 185.945 183.102 196.111 186.252 200.783C186.282 200.833 186.317 200.888 186.347 200.938L186.352 200.933Z" fill="#40A192"/>
<path d="M136.457 144.804L110.542 155.353L114.284 139.306L136.457 144.804Z" fill="#1F296F"/>
</svg>
