<svg width="71" height="17" viewBox="0 0 71 17" fill="none" xmlns="http://www.w3.org/2000/svg">
<path d="M2.03906 3.86872C1.36232 3.86872 0.809985 3.32636 0.795057 2.64466C0.785105 1.95797 1.32746 1.39069 2.01415 1.38074L69.011 0.176568C69.6878 0.16164 70.265 0.709007 70.275 1.40067C70.2849 2.08735 69.7425 2.6546 69.0508 2.66455L2.054 3.86872H2.0291H2.03906Z" fill="#4D4D9E"/>
<path d="M2.27262 16.9157C1.59588 16.9157 1.04355 16.3733 1.02862 15.6966C1.01369 15.0099 1.56103 14.4426 2.24771 14.4277L49.9725 13.5171C50.6592 13.5171 51.2265 14.0495 51.2414 14.7362C51.2564 15.4229 50.709 15.9901 50.0223 16.0051L2.29752 16.9157H2.27262Z" fill="#4D4D9E"/>
</svg>
