<svg width="177" height="257" viewBox="0 0 177 257" fill="none" xmlns="http://www.w3.org/2000/svg">
<path d="M1.82422 4.38721L171.289 1.34045L175.653 244.068C175.739 248.805 171.962 252.72 167.225 252.805L14.9247 255.543C10.1883 255.628 6.27337 251.852 6.18822 247.115L1.82422 4.38721Z" fill="white"/>
<path d="M14.7756 256.778C12.2179 256.778 9.80459 255.802 7.9585 254.021C6.06762 252.2 5.00274 249.752 4.95795 247.124L0.589011 4.39697C0.584035 4.06855 0.708471 3.75008 0.937367 3.51123C1.16626 3.27239 1.47975 3.13806 1.80817 3.13308L171.271 0.0828178C171.957 0.0678899 172.525 0.615221 172.535 1.3019L176.904 244.029C176.948 246.652 175.973 249.14 174.152 251.031C172.331 252.921 169.883 253.986 167.255 254.031L14.9548 256.773C14.8951 256.773 14.8353 256.773 14.7706 256.773L14.7756 256.778ZM3.09693 5.60114L7.44097 247.085C7.47581 249.045 8.27197 250.876 9.68515 252.235C11.0983 253.598 12.9594 254.344 14.91 254.29L167.21 251.548C169.171 251.513 170.997 250.717 172.361 249.304C173.719 247.896 174.451 246.035 174.416 244.079L170.072 2.59567L3.09693 5.60114Z" fill="#40A192"/>
</svg>
