<svg width="201" height="230" viewBox="0 0 201 230" fill="none" xmlns="http://www.w3.org/2000/svg">
<path d="M104.729 229.514C156.922 229.514 199.233 187.204 199.233 135.011C199.233 82.818 156.922 40.5074 104.729 40.5074C52.5356 40.5074 10.2246 82.818 10.2246 135.011C10.2246 187.204 52.5356 229.514 104.729 229.514Z" fill="#40A192"/>
<path d="M136.66 145.52C133.664 153.611 133.465 170.091 144.552 184.074C155.638 198.056 170.482 202.888 170.482 202.888C170.482 202.888 132.072 216.169 94.8366 215.129C59.3229 214.139 22.5801 181.745 22.5801 181.745C22.5801 181.745 43.2902 185.074 57.3573 173.47C71.4245 161.866 75.7436 142.629 77.2414 117.162C78.7392 91.6951 78.2416 63.2326 77.2414 55.1367L172.308 41.821C173.447 69.7312 171.885 87.0923 170.447 110.877C169.367 128.691 155.972 145.52 136.66 145.52Z" fill="white"/>
<path d="M76.4897 20.9767C78.082 13.6571 64.8508 4.51128 57.3022 2.13775C49.7785 -0.230807 30.4119 -3.97273 13.1303 12.3982C-4.75348 29.3364 -1.03641 61.297 5.50703 77.4589C9.19424 86.5699 16.8722 97.5717 25.0627 105.484C33.0044 113.156 40.4983 117.182 46.6536 117.182C48.1115 117.182 49.4899 116.958 50.7887 116.5C62.328 112.435 60.1833 98.9301 57.561 89.1275C56.9887 86.9928 56.2672 84.8034 55.5009 82.4846C52.8437 74.4534 49.8333 65.3573 53.406 57.3062C59.0737 44.528 75.6537 40.2437 75.8229 40.1989C76.3852 40.0596 76.7733 39.552 76.7634 38.9748L76.4897 20.9718V20.9767Z" fill="#1F296F"/>
<path d="M76.3405 47.8817C85.1429 47.8817 92.2786 40.7461 92.2786 31.9437C92.2786 23.1414 85.1429 16.0057 76.3405 16.0057C67.5381 16.0057 60.4023 23.1414 60.4023 31.9437C60.4023 40.7461 67.5381 47.8817 76.3405 47.8817Z" fill="#4D4D9E"/>
<path d="M131.296 147.625C117.353 147.625 112.825 145.112 112.307 144.794C111.372 144.216 111.078 142.992 111.655 142.057C112.232 141.121 113.457 140.828 114.392 141.405C114.412 141.415 119.597 144.231 136.57 143.53C154.17 142.803 167.282 129.92 168.456 112.201C170.049 88.1224 170.934 71.4728 169.785 43.3785C169.74 42.2788 170.596 41.3533 171.691 41.3085C172.775 41.2538 173.716 42.1196 173.761 43.2143C174.92 71.5076 174.029 88.2517 172.427 112.465C171.118 132.284 156.439 146.694 136.734 147.505C134.779 147.585 132.967 147.62 131.291 147.62L131.296 147.625Z" fill="#1F296F"/>
<path d="M61.8053 171.176C61.3326 171.176 60.8599 171.007 60.4767 170.669C59.6557 169.937 59.586 168.678 60.3224 167.857C69.2792 157.846 73.7428 142.649 75.2455 117.043C76.7234 91.9091 76.2307 63.2824 75.2554 55.3756C75.1211 54.2858 75.8974 53.2906 76.9871 53.1563C78.0818 53.017 79.072 53.7982 79.2064 54.8879C80.2215 63.1281 80.734 91.5309 79.2164 117.277C78.1117 136.026 75.3599 157.015 63.2832 170.509C62.8901 170.947 62.3477 171.171 61.8004 171.171L61.8053 171.176Z" fill="#1F296F"/>
<path d="M140.297 179.65C139.59 179.65 138.908 179.277 138.545 178.61C131.852 166.334 131.837 152.8 134.788 144.828C135.171 143.798 136.316 143.271 137.346 143.654C138.376 144.037 138.903 145.182 138.52 146.212C136.55 151.526 135.077 163.931 142.043 176.704C142.571 177.67 142.212 178.879 141.247 179.406C140.943 179.571 140.62 179.65 140.297 179.65Z" fill="#1F296F"/>
<path d="M133.246 87.0525C134.395 87.0525 135.326 84.798 135.326 82.0169C135.326 79.2357 134.395 76.9812 133.246 76.9812C132.097 76.9812 131.166 79.2357 131.166 82.0169C131.166 84.798 132.097 87.0525 133.246 87.0525Z" fill="#1F296F"/>
<path d="M155.589 86.3161C156.738 86.3161 157.669 84.0616 157.669 81.2804C157.669 78.4993 156.738 76.2448 155.589 76.2448C154.44 76.2448 153.509 78.4993 153.509 81.2804C153.509 84.0616 154.44 86.3161 155.589 86.3161Z" fill="#1F296F"/>
<path d="M150.827 100.413C150.678 100.413 150.523 100.388 150.374 100.328C149.732 100.08 149.419 99.3581 149.667 98.7162L151.21 94.7554C148.981 95.5117 147.991 95.3077 147.423 95.0688C145.766 94.3622 145.468 91.5657 145.468 86.3111C145.468 85.6244 146.025 85.0671 146.712 85.0671C147.398 85.0671 147.956 85.6244 147.956 86.3111C147.956 90.7198 148.244 92.2922 148.518 92.7998C148.856 92.8197 149.777 92.7053 151.519 91.9837C152.225 91.6902 153.026 91.8444 153.574 92.3768C154.116 92.9093 154.29 93.7104 154.017 94.4219L151.991 99.6218C151.802 100.114 151.329 100.413 150.832 100.413H150.827Z" fill="#1F296F"/>
<path d="M125.603 72.9358C124.827 72.9358 124.075 72.5327 123.662 71.8162C123.045 70.7463 123.414 69.373 124.484 68.756L134.207 63.158C135.281 62.541 136.65 62.9092 137.267 63.979C137.884 65.0489 137.516 66.4222 136.446 67.0392L126.723 72.6372C126.369 72.8412 125.986 72.9358 125.608 72.9358H125.603Z" fill="#1F296F"/>
<path d="M161.679 71.4927C161.301 71.4927 160.913 71.3982 160.559 71.1941L152.389 66.4769C151.319 65.8599 150.951 64.4915 151.568 63.4167C152.185 62.3469 153.558 61.9787 154.628 62.5957L162.799 67.3129C163.868 67.9299 164.237 69.2983 163.62 70.3731C163.207 71.0896 162.45 71.4927 161.679 71.4927Z" fill="#1F296F"/>
<path d="M129.748 94.357C130.077 93.8345 130.888 94.0137 130.948 94.6307C131.112 96.2927 131.704 98.5717 133.635 99.751C135.565 100.93 138.825 99.8206 141.084 98.7309C141.711 98.4274 142.308 99.1837 141.875 99.7261C139.083 103.234 133.5 109.016 128.868 106.07C124.777 103.473 127.867 97.3625 129.753 94.352L129.748 94.357Z" fill="#1F296F"/>
<path d="M197.461 10.8009C194.311 6.40217 189.196 3.69028 182.264 2.74982C172.223 1.38641 164.744 4.90441 157.509 8.31294C152.378 10.7263 147.532 13.0102 141.765 13.7367C137.306 14.299 132.798 13.9507 128.021 13.5875C119.144 12.9058 109.077 12.1345 95.871 16.797C73.7029 24.6192 71.8767 39.5421 70.8964 47.5583C69.6972 57.3709 73.7079 69.2386 75.2056 72.6223C75.3251 72.8959 75.544 73.1149 75.8127 73.2443L80.4852 75.4387C80.6544 75.5183 80.8335 75.5581 81.0127 75.5581C81.3411 75.5581 81.6645 75.4287 81.9033 75.1849C82.0974 74.9859 101.658 55.2562 124.936 51.3749C133.086 50.0165 139.879 50.2006 147.069 50.3897C154.847 50.5987 162.883 50.8126 173.312 49.1158C192.619 45.971 198.73 34.7353 200.456 25.8632C200.85 23.8578 201.785 16.8417 197.461 10.8059V10.8009Z" fill="#1F296F"/>
<path d="M72.0059 132.204C71.976 132.204 71.9461 132.204 71.9213 132.204C67.6419 131.911 63.8452 129.492 61.7652 125.741C59.6853 121.989 59.6505 117.485 61.6757 113.704L74.2252 90.2123C74.5486 89.6052 75.305 89.3763 75.907 89.6997C76.5141 90.0232 76.743 90.7795 76.4196 91.3816L63.8701 114.873C62.2479 117.908 62.2778 121.521 63.9447 124.536C65.6117 127.547 68.657 129.488 72.0954 129.726C72.7821 129.776 73.2996 130.368 73.2499 131.055C73.2051 131.712 72.6577 132.214 72.0109 132.214L72.0059 132.204Z" fill="#4D4D9E"/>
<path d="M74.6627 94.0438C80.3514 94.0438 84.963 89.4322 84.963 83.7435C84.963 78.0549 80.3514 73.4433 74.6627 73.4433C68.974 73.4433 64.3623 78.0549 64.3623 83.7435C64.3623 89.4322 68.974 94.0438 74.6627 94.0438Z" fill="white"/>
<path d="M75.3646 95.5067C72.1103 95.5067 68.866 94.188 66.5123 91.5906C62.0936 86.7142 62.4619 79.1507 67.3433 74.7271C71.1948 71.2339 76.8126 70.6319 81.3159 73.2243C82.2663 73.7717 82.5947 74.9908 82.0474 75.9412C81.5 76.8916 80.2809 77.22 79.3305 76.6727C76.33 74.946 72.588 75.3491 70.0154 77.6778C68.438 79.1059 67.5174 81.0615 67.4129 83.1812C67.3084 85.306 68.0349 87.3411 69.4631 88.9135C72.4088 92.1628 77.4496 92.4116 80.7039 89.4659C81.5199 88.7294 82.7789 88.7891 83.5153 89.6052C84.2518 90.4212 84.1921 91.6802 83.376 92.4166C81.097 94.4816 78.2258 95.5017 75.3646 95.5017V95.5067Z" fill="#1F296F"/>
<path d="M74.8774 88.3363C74.5092 88.3363 74.141 88.1721 73.8972 87.8586C73.4742 87.3163 73.5688 86.535 74.1062 86.1121C75.0665 85.3557 75.0765 84.3705 74.9969 83.853C74.8675 83.012 74.3351 82.2308 73.728 82.0069C73.0861 81.7631 72.7577 81.0465 73.0015 80.4046C73.2453 79.7627 73.9619 79.4343 74.6038 79.6782C76.0667 80.2255 77.1813 81.7183 77.455 83.4748C77.7337 85.2761 77.0719 86.948 75.6388 88.0726C75.4099 88.2517 75.1412 88.3363 74.8725 88.3363H74.8774Z" fill="#1F296F"/>
<path d="M72.7873 132.234C72.4987 132.234 72.2051 132.224 71.9165 132.204C71.2298 132.155 70.7123 131.563 70.7621 130.876C70.8069 130.189 71.399 129.677 72.0907 129.721C75.5042 129.96 78.659 128.547 80.7589 125.85C82.8587 123.153 83.4559 119.745 82.396 116.5L74.1358 91.1776C73.9218 90.5258 74.2801 89.8241 74.932 89.6102C75.5838 89.3962 76.2854 89.7545 76.4994 90.4063L84.7596 115.729C86.0633 119.72 85.2969 124.074 82.7194 127.383C80.3209 130.463 76.6586 132.234 72.7873 132.234Z" fill="#4D4D9E"/>
<path d="M112.083 144.629L135.923 163.638L137.242 144.794L112.083 144.629Z" fill="#1F296F"/>
<path d="M65.413 154.213C72.1306 150.113 91.5668 164.319 113.357 166.757C129.141 168.524 138.859 162.468 141.919 163.633C146.925 165.533 151.473 182.178 148.885 185.79C145.994 189.826 129.986 195.499 108.525 193.011C78.0868 189.483 55.3564 176.107 55.3564 171.783C55.3564 167.459 58.6357 158.353 65.413 154.213Z" fill="#4D4D9E"/>
<path d="M172.317 201.052C155.165 218.612 131.22 229.514 104.728 229.514C68.5975 229.514 37.2188 209.247 21.3105 179.461C21.8131 179.182 22.4053 179.078 22.9875 179.168C23.1765 179.202 42.7272 182.148 55.6847 171.455C57.1726 170.231 58.5808 168.882 59.8646 167.444C60.4269 166.817 61.2529 166.504 62.0888 166.588L140.58 175.062C141.426 175.152 142.178 175.654 142.591 176.406C143.74 178.511 145.089 180.546 146.591 182.447C157.021 195.593 171.148 200.355 171.287 200.4C171.685 200.529 172.039 200.753 172.322 201.047L172.317 201.052Z" fill="#4D4D9E"/>
</svg>
