<svg width="37" height="45" viewBox="0 0 37 45" fill="none" xmlns="http://www.w3.org/2000/svg">
<path d="M18.4999 3.22368C19.5784 3.22368 21.7598 9.11596 22.6325 9.75487C23.5044 10.3938 29.7379 10.6647 30.0714 11.699C30.4049 12.7323 25.5195 16.6461 25.1868 17.6795C24.8533 18.7129 26.5244 24.7737 25.6516 25.4126C24.7798 26.0515 19.5784 22.5772 18.4999 22.5772C17.4215 22.5772 12.2209 26.0515 11.3482 25.4126C10.4763 24.7737 12.1465 18.7137 11.813 17.6795C11.4795 16.6461 6.59492 12.7323 6.92843 11.699C7.26195 10.6656 13.4946 10.3938 14.3673 9.75487C15.2392 9.11596 17.4215 3.22368 18.4999 3.22368Z" fill="#FAE16E"/>
<path d="M5.13762 25.0402L18.192 29.412C18.3924 29.479 18.6086 29.479 18.8091 29.412L31.8634 25.0402C32.4972 24.8284 33.1502 25.3032 33.1502 25.9765V28.804C33.1502 29.2293 32.8806 29.6061 32.4806 29.7403L18.8091 34.3185C18.6086 34.3856 18.3924 34.3856 18.192 34.3185L4.52049 29.7403C4.12044 29.6061 3.85083 29.2293 3.85083 28.804V25.9765C3.85083 25.3041 4.50473 24.8284 5.13762 25.0402Z" fill="#3FA192"/>
<path d="M5.13762 32.5474L18.192 36.9192C18.3924 36.9862 18.6086 36.9862 18.8091 36.9192L31.8634 32.5474C32.4972 32.3356 33.1502 32.8104 33.1502 33.4837V36.3112C33.1502 36.7365 32.8806 37.1133 32.4806 37.2475L19.3921 41.6307C18.8135 41.8249 18.1876 41.8249 17.609 41.6307L4.52049 37.2475C4.12044 37.1133 3.85083 36.7365 3.85083 36.3112V33.4837C3.85083 32.8113 4.50473 32.3356 5.13762 32.5474Z" fill="#3FA192"/>
</svg>
